<?xml version="1.0" ?><svg enable-background="new 0 0 64 64" version="1.1" viewBox="0 0 64 64" xml:space="preserve" xmlns="http://www.w3.org/2000/svg" xmlns:xlink="http://www.w3.org/1999/xlink"><g id="Grid"/><g id="row_3"/><g id="row_2"/><g id="row_1"><g id="support_x5F_chat"><path d="M32,7c13.8,0,25,11.2,25,25S45.8,57,32,57S7,45.8,7,32S18.2,7,32,7 M32,5C17.1,5,5,17.1,5,32    s12.1,27,27,27s27-12.1,27-27S46.9,5,32,5L32,5z" fill="#FFECB3"/><rect fill="#263238" height="63.6" transform="matrix(0.7071 -0.7071 0.7071 0.7071 -13.2548 32)" width="1" x="31.5" y="0.2"/><path d="M56,11h-4.4c0.7-1.2,2-2,3.4-2V5c-3.7,0-6.8,2.6-7.7,6H26c-0.8,0.8-1.2,1.2-2,2v18c0.8,0.8,1.2,1.2,2,2h30    c0.8-0.8,1.2-1.2,2-2V13C57.2,12.2,56.8,11.8,56,11z" fill="#FFC107"/><path d="M44,22c0,1.7-1.3,3-3,3s-3-1.3-3-3s1.3-3,3-3S44,20.3,44,22z M33,19c-1.7,0-3,1.3-3,3s1.3,3,3,3    c1.7,0,3-1.3,3-3S34.7,19,33,19z M49,19c-1.7,0-3,1.3-3,3s1.3,3,3,3s3-1.3,3-3S50.7,19,49,19z" fill="#01579B"/><path d="M38,31H8c-0.8,0.8-1.2,1.2-2,2v18c0.8,0.8,1.2,1.2,2,2h4.4c-0.7,1.2-2,2-3.4,2v4c3.7,0,6.8-2.6,7.7-6H38    c0.8-0.8,1.2-1.2,2-2V33C39.2,32.2,38.8,31.8,38,31z" fill="#01579B"/><path d="M26,42c0,1.7-1.3,3-3,3s-3-1.3-3-3s1.3-3,3-3S26,40.3,26,42z M15,39c-1.7,0-3,1.3-3,3s1.3,3,3,3s3-1.3,3-3    S16.7,39,15,39z M31,39c-1.7,0-3,1.3-3,3s1.3,3,3,3c1.7,0,3-1.3,3-3S32.7,39,31,39z" fill="#FFC107"/><g><path d="M15,32c0-6,3.2-11.4,8-14.4l-2.1-3.4C14.9,18,11,24.5,11,32H15z" fill="#FFECB3"/><path d="M53,32h-4c0,6-3.2,11.4-8,14.4l2.1,3.4C49.1,46,53,39.5,53,32z" fill="#FFECB3"/></g><g><path d="M48.4,36.4c-0.4,1.5-1,2.8-1.7,4.1l8.7,5c1.2-2,2.1-4.2,2.7-6.5c0.6-2.3,0.9-4.7,0.9-7l-10,0     C49,33.5,48.8,34.9,48.4,36.4z" fill="#F44336"/><path d="M32,5l0,10c1.5,0,2.9,0.2,4.4,0.6c1.5,0.4,2.8,1,4.1,1.7l5-8.7c-2-1.2-4.2-2.1-6.5-2.7     C36.7,5.3,34.3,5,32,5z" fill="#F44336"/><path d="M15.6,27.6c0.4-1.5,1-2.8,1.7-4.1l-8.7-5c-1.2,2-2.1,4.2-2.7,6.5S5,29.7,5,32l10,0     C15,30.5,15.2,29.1,15.6,27.6z" fill="#F44336"/><path d="M27.6,48.4c-1.5-0.4-2.8-1-4.1-1.7l-5,8.7c2,1.2,4.2,2.1,6.5,2.7s4.7,0.9,7,0.9l0-10     C30.5,49,29.1,48.8,27.6,48.4z" fill="#F44336"/></g></g></g></svg>