<?xml version="1.0" ?><svg data-name="Layer 1" id="Layer_1" viewBox="0 0 500 500" xmlns="http://www.w3.org/2000/svg"><defs><style>.cls-1{fill:#69d33d;}.cls-2{fill:#82ed4a;}.cls-3{fill:#fff;}</style></defs><title/><circle class="cls-1" cx="250" cy="250" r="250"/><circle class="cls-2" cx="250" cy="250" r="203.65"/><path class="cls-3" d="M370.32,290.62H129.69a12.5,12.5,0,1,1,0-25H370.32a12.5,12.5,0,0,1,0,25Z"/><path class="cls-3" d="M370.32,346.87H297.4a12.5,12.5,0,0,1,0-25h72.92a12.5,12.5,0,0,1,0,25Z"/><path class="cls-3" d="M370.32,234.37H129.69a12.5,12.5,0,1,1,0-25H370.32a12.5,12.5,0,0,1,0,25Z"/><path class="cls-3" d="M250,178.12H129.69a12.5,12.5,0,1,1,0-25H250a12.5,12.5,0,1,1,0,25Z"/></svg>