<?xml version="1.0" ?><!DOCTYPE svg  PUBLIC '-//W3C//DTD SVG 1.1//EN'  'http://www.w3.org/Graphics/SVG/1.1/DTD/svg11.dtd'><svg height="100%" style="fill-rule:evenodd;clip-rule:evenodd;stroke-linejoin:round;stroke-miterlimit:2;" version="1.1" viewBox="0 0 64 64" width="100%" xml:space="preserve" xmlns="http://www.w3.org/2000/svg" xmlns:serif="http://www.serif.com/" xmlns:xlink="http://www.w3.org/1999/xlink"><g transform="matrix(1,0,0,1,-560,0)"><g id="whatsapp-wa-apps-platform" transform="matrix(1,0,0,1,560,7.10543e-15)"><rect height="64" style="fill:none;" width="64" x="0" y="0"/><g transform="matrix(0.928571,0,0,0.928571,-517.714,2.28571)"><path d="M569.235,48.296C565.94,43.703 564,38.076 564,32C564,16.546 576.546,4 592,4C607.454,4 620,16.546 620,32C620,47.454 607.454,60 592,60C585.924,60 580.297,58.06 575.704,54.765L566,58L569.235,48.296Z" style="fill:rgb(218,231,239);"/></g><g transform="matrix(0.928571,0,0,0.928571,-517.714,2.28571)"><path d="M568.637,48.385C565.376,43.745 563.462,38.094 563.462,32C563.462,16.249 576.249,3.462 592,3.462C607.751,3.462 620.538,16.249 620.538,32C620.538,47.751 607.751,60.538 592,60.538C585.906,60.538 580.255,58.624 575.615,55.363L566.17,58.511C565.977,58.575 565.763,58.525 565.619,58.381C565.475,58.237 565.425,58.023 565.489,57.83L568.637,48.385ZM566.851,57.149L575.533,54.255C575.697,54.2 575.877,54.227 576.017,54.328C580.522,57.559 586.041,59.462 592,59.462C607.156,59.462 619.462,47.156 619.462,32C619.462,16.844 607.156,4.538 592,4.538C576.844,4.538 564.538,16.844 564.538,32C564.538,37.959 566.441,43.478 569.672,47.983C569.773,48.123 569.8,48.303 569.745,48.467L566.851,57.149Z"/></g><g transform="matrix(0.909091,0,0,0.909091,-506.182,2.90909)"><path d="M574.309,45.073C571.602,41.418 570,36.894 570,32C570,19.858 579.858,10 592,10C604.142,10 614,19.858 614,32C614,44.142 604.142,54 592,54C587.106,54 582.582,52.398 578.927,49.691L572,52L574.309,45.073Z" style="fill:rgb(149,214,164);"/></g><g transform="matrix(1,0,0,1,-560,-7.10543e-15)"><path d="M578.896,16.896C575.846,20.407 574,24.99 574,30C574,34.45 575.456,38.562 577.917,41.885L575.818,48.182L582.115,46.083C585.438,48.544 589.55,50 594,50C599.01,50 603.593,48.154 607.104,45.104C603.437,49.327 598.028,52 592,52C587.55,52 583.438,50.544 580.115,48.083L573.818,50.182L575.917,43.885C573.456,40.562 572,36.45 572,32C572,25.972 574.673,20.563 578.896,16.896Z" style="fill:rgb(120,194,164);"/></g><g transform="matrix(0.909091,0,0,0.909091,-506.182,2.90909)"><path d="M573.697,45.168C571.025,41.463 569.45,36.914 569.45,32C569.45,19.554 579.554,9.45 592,9.45C604.446,9.45 614.55,19.554 614.55,32C614.55,44.446 604.446,54.55 592,54.55C587.086,54.55 582.537,52.975 578.832,50.303L572.174,52.522C571.976,52.588 571.758,52.536 571.611,52.389C571.464,52.242 571.412,52.024 571.478,51.826L573.697,45.168ZM572.87,51.13L578.753,49.169C578.923,49.113 579.11,49.142 579.254,49.249C582.818,51.888 587.228,53.45 592,53.45C603.839,53.45 613.45,43.839 613.45,32C613.45,20.161 603.839,10.55 592,10.55C580.161,10.55 570.55,20.161 570.55,32C570.55,36.772 572.112,41.182 574.751,44.746C574.858,44.89 574.887,45.077 574.831,45.247L572.87,51.13Z"/></g><g transform="matrix(0.683463,0.683463,-0.683463,0.683463,-352.058,-393.15)"><path d="M596.583,31.968C598.015,31.911 599.222,30.882 599.503,29.477C599.692,28.539 599.865,27.677 599.865,27.677C599.946,27.269 600.271,26.955 600.681,26.887C601.974,26.671 604.739,26.21 605.679,26.053C605.888,26.019 606.102,26.051 606.291,26.145C606.593,26.296 607.073,26.536 607.447,26.724C607.786,26.893 608,27.239 608,27.618L608,31.973C608.009,32.716 607.603,33.435 606.894,33.789C602.635,35.918 598.388,36 592,36C585.612,36 581.365,35.918 577.106,33.789C576.397,33.435 575.991,32.716 576,31.973L576,27.618C576,27.239 576.214,26.893 576.553,26.724C576.927,26.536 577.407,26.296 577.709,26.145C577.898,26.051 578.112,26.019 578.321,26.053C579.261,26.21 582.026,26.671 583.319,26.887C583.729,26.955 584.054,27.269 584.135,27.677C584.135,27.677 584.308,28.539 584.495,29.477C584.776,30.883 585.984,31.914 587.417,31.97C588.811,32.007 590.323,32 592,32C593.677,32 595.189,32.007 596.583,31.968Z" style="fill:rgb(249,246,249);"/></g><g transform="matrix(0.683463,0.683463,-0.683463,0.683463,-352.058,-393.15)"><path d="M596.564,31.451C597.757,31.403 598.761,30.545 598.996,29.374C599.185,28.437 599.357,27.575 599.357,27.575C599.481,26.957 599.974,26.48 600.596,26.376C601.889,26.161 604.654,25.7 605.594,25.543C605.91,25.49 606.235,25.539 606.522,25.683C606.824,25.834 607.304,26.074 607.679,26.261C608.193,26.518 608.517,27.043 608.517,27.618C608.517,27.618 608.517,27.618 608.517,27.618C608.517,27.618 608.517,31.973 608.517,31.966C608.529,32.901 608.017,33.806 607.126,34.252C602.8,36.415 598.489,36.517 592,36.517C585.511,36.517 581.2,36.415 576.874,34.252C575.983,33.806 575.471,32.901 575.483,31.973C575.483,31.973 575.483,27.618 575.483,27.618C575.483,27.043 575.807,26.518 576.321,26.261C576.696,26.074 577.176,25.834 577.478,25.683C577.765,25.539 578.09,25.49 578.406,25.543C579.346,25.7 582.111,26.161 583.404,26.376C584.026,26.48 584.519,26.957 584.643,27.575C584.643,27.575 584.815,28.437 585.003,29.376C585.237,30.547 586.243,31.406 587.431,31.453C588.821,31.49 590.328,31.483 592,31.483C593.67,31.483 595.176,31.49 596.564,31.451ZM596.603,32.484C598.274,32.419 599.682,31.217 600.01,29.578L600.372,27.778C600.411,27.582 600.568,27.43 600.766,27.397C602.059,27.181 604.824,26.72 605.764,26.564C605.865,26.547 605.968,26.562 606.06,26.608C606.362,26.759 606.841,26.999 607.216,27.186C607.379,27.268 607.483,27.435 607.483,27.618L607.483,31.979C607.49,32.53 607.188,33.064 606.663,33.326C602.471,35.422 598.288,35.483 592,35.483C585.712,35.483 581.529,35.422 577.337,33.326C576.812,33.064 576.51,32.53 576.517,31.979C576.517,31.973 576.517,27.618 576.517,27.618C576.517,27.435 576.621,27.268 576.784,27.186C577.159,26.999 577.638,26.759 577.94,26.608C578.032,26.562 578.135,26.547 578.236,26.564C579.176,26.72 581.941,27.181 583.234,27.397C583.432,27.43 583.589,27.582 583.628,27.778C583.628,27.778 583.8,28.64 583.988,29.578C584.316,31.219 585.725,32.421 587.397,32.487C588.802,32.525 590.318,32.517 592,32.517C593.683,32.517 595.199,32.525 596.598,32.485L596.603,32.484Z"/></g></g></g></svg>