<?xml version="1.0" ?><!DOCTYPE svg  PUBLIC '-//W3C//DTD SVG 1.1//EN'  'http://www.w3.org/Graphics/SVG/1.1/DTD/svg11.dtd'><svg enable-background="new 0 0 512 512" height="512px" id="Layer_1" version="1.1" viewBox="0 0 512 512" width="512px" xml:space="preserve" xmlns="http://www.w3.org/2000/svg" xmlns:xlink="http://www.w3.org/1999/xlink"><g><g><path clip-rule="evenodd" d="M411.149,88.275c-0.005,0-0.005,0-0.005,0     c-37.613-37.608-89.055-58.324-144.833-58.314c-63.583,0.005-127.224,27.195-174.612,74.602     C44.292,151.96,17.097,215.608,17.093,279.181c0,55.786,20.72,107.216,58.339,144.823c37.617,37.623,89.053,58.34,144.833,58.33     c63.568,0,127.211-27.19,174.603-74.602C487.422,315.184,494.724,171.875,411.149,88.275z" fill="#54B75A" fill-rule="evenodd"/><path d="M248.585,109.682c-83.815,0-151.769,61.896-151.769,138.25c0,33.807,13.339,64.766,35.465,88.785     l-17.133,66.961l88.924-23.555c14.072,3.932,29.02,6.056,44.513,6.056c83.813,0,151.768-61.894,151.768-138.247     S332.398,109.682,248.585,109.682z M240.855,355.459c-8.918,0-17.567-1.109-25.82-3.194c-3.574-0.901-7.068-2.004-10.482-3.265     l-36.349,16.18l-20.399,9.084l8.867-16.342l15.346-28.285c-6.563-5.767-12.352-12.348-17.231-19.576     c-10.753-15.939-17.031-35.033-17.031-55.568c0-55.762,46.161-100.967,103.101-100.967c56.93,0,103.086,45.205,103.086,100.967     C343.941,310.254,297.785,355.459,240.855,355.459z" fill="#FFFFFF"/></g></g></svg>