<?xml version="1.0" ?><svg style="enable-background:new 0 0 64 64;" version="1.1" viewBox="0 0 64 64" xml:space="preserve" xmlns="http://www.w3.org/2000/svg" xmlns:xlink="http://www.w3.org/1999/xlink"><style type="text/css">
	.st0{enable-background:new    ;}
	.st1{fill-rule:evenodd;clip-rule:evenodd;fill:#A4C3FF;}
	.st2{fill-rule:evenodd;clip-rule:evenodd;fill:#54596E;}
	.st3{fill-rule:evenodd;clip-rule:evenodd;fill:#FFFFFF;}
	.st4{fill-rule:evenodd;clip-rule:evenodd;fill:#FF6669;}
	.st5{fill-rule:evenodd;clip-rule:evenodd;fill:#B0E7A7;}
	.st6{fill-rule:evenodd;clip-rule:evenodd;fill:#FFC483;}
</style><g class="st0" id="Rectangle_2_1_"/><g id="coloured_in_1_"><g id="twitter_3_"/><g id="instagram_3_"/><g id="youtube_3_"/><g id="whatsapp_3_"><g id="Shape_15_3_"><g><path class="st5" d="M62,29C61.4,19.8,57.2,11.3,49,7c-2.6-1.3-5.4-2.1-8.1-2.8C36.6,3.1,32.2,2.1,27.8,2      c-4.4-0.1-9,0.9-12.6,3.4c-1.6,1.1-3,2.6-4.3,4.1c-8.6,10.3-10.5,25.1-4.3,37l0.2,0.3c-1.8,5-3.4,10.1-4.6,15.2      c5.1-1.5,10.1-2.9,15.2-4.4c1.1,1.3,3,1.7,4.7,1.9c3.5,0.5,7.1,0.8,10.6,1c5,0.3,10.3,0.1,14.6-2.5c1.6-1,2.9-2.2,4.3-3.5      c2.4-2.2,4.8-4.4,6.4-7.3c1.3-2.3,2.1-4.9,2.8-7.5c0.5-2.1,1-4.2,1.2-6.3C62.1,32,62.1,30.5,62,29z"/></g></g><g id="Shape_16_3_"><g><path class="st3" d="M46,38.8c-0.2-0.4-0.5-0.6-0.9-0.8c-1.6-0.9-3.3-1.8-4.9-2.7c-0.3-0.2-0.7-0.4-1-0.3      c-0.4,0.1-0.6,0.5-0.8,0.8c-0.6,1-1.2,2.1-2.3,2.4c-1,0.2-1.9-0.4-2.8-1c-1.9-1.4-3.9-2.8-5.8-4.1c-1.1-0.8-2.3-1.7-2.4-3.1      c-0.1-1.4,0.9-2.5,1.9-3.4c0.2-0.2,0.3-0.3,0.4-0.6c0.1-0.2,0-0.5-0.1-0.7c-0.6-2.2-1.2-4.4-1.8-6.7l-0.1,0      c-0.9-0.5-3.2-0.7-4.3-0.2c-1,0.4-1.6,1.5-2,2.4c-0.4,1.1-0.9,2.6-0.9,3.7c-0.1,4.4,1.7,7.9,4.4,11.1c1.2,1.4,2.4,2.7,3.8,3.8      c3.9,3.1,7.7,4.3,12.5,5.6c0.8,0.2,2.6,0.2,3.4,0c1.1-0.2,2.1-0.6,2.7-1.6c0.6-1,0.8-2.1,1.1-3.2C46.1,39.7,46.2,39.2,46,38.8z"/></g></g><g id="Shape_14_7_"><g><path class="st2" d="M48.3,4.5C35.7-1,18.5-3.2,9,8.7c-8.8,11-10.3,25.9-4.3,38.5c-1.7,4.9-3.2,9.9-4.5,15      C-0.1,63.2,0.9,64.3,2,64c4-1.2,8-2.5,12-3.5c3-0.8,4.4,0.5,7.5,1c6.6,1.1,14.2,2,20.8,0.6c12.6-2.6,20.2-15.8,21.6-27.7      C65.2,22.4,59.7,9.4,48.3,4.5z M59.9,39.2c-0.1-0.1-0.2-0.1-0.3-0.2c-0.6-0.6-1.5-0.6-2.1,0c-0.6,0.6-0.6,1.6,0,2.1      c0.5,0.4,1,0.8,1.5,1.1c-0.2,0.6-0.4,1.2-0.7,1.9c-0.6-0.4-1.2-0.8-1.8-1.3c-0.6-0.5-1.5-0.6-2.1,0c-0.5,0.5-0.6,1.6,0,2.1      c0.8,0.7,1.7,1.3,2.5,1.8c-0.3,0.6-0.7,1.1-1,1.7c-0.9-1-1.8-1.9-2.8-2.9c-1.3-1.4-3.5,0.7-2.1,2.1c1,1.1,2,2.1,3.1,3.2      c-0.5,0.5-0.9,1.1-1.4,1.6c-1.2-1-2.2-2.1-3-3.4c-1-1.6-3.6-0.1-2.6,1.5c0.9,1.5,2.1,2.8,3.4,4c-0.7,0.6-1.4,1.1-2.1,1.6      c-1.4-1.4-2.7-2.8-3.8-4.4c-0.5-0.7-1.3-1-2.1-0.5c-0.6,0.4-1,1.4-0.5,2.1c1.2,1.6,2.4,3,3.8,4.4c-0.9,0.4-1.7,0.8-2.6,1.1      c0-0.4-0.2-0.8-0.4-1.1c-0.9-1.2-1.8-2.3-2.7-3.5c-0.5-0.6-1.6-0.5-2.1,0c-0.6,0.6-0.5,1.5,0,2.1c0.8,1,1.6,2.1,2.5,3.1      c-0.9,0.1-1.7,0.2-2.6,0.2c0-0.2-0.1-0.5-0.2-0.8c-1.1-1.6-2.2-3.3-3.3-4.9c-1.1-1.6-3.7-0.1-2.6,1.5c0.9,1.4,1.9,2.8,2.8,4.2      c-0.9,0-1.8-0.1-2.8-0.1c0,0,0,0-0.1,0c0.1-0.5,0-1-0.4-1.5c-1-1.3-1.9-2.7-2.7-4.1c-0.9-1.7-3.5-0.2-2.6,1.5      c0.7,1.3,1.6,2.6,2.5,3.8c-0.9-0.1-1.8-0.1-2.6-0.2c0,0,0,0,0,0c-0.6-1.1-1.2-2.2-1.7-3.3c-0.3-0.7-1-1.3-1.8-1      c-0.7,0.2-1.4,1.1-1,1.8c0.3,0.7,0.6,1.5,1,2.2c-1.5-0.2-3-0.8-4.3-1.7c-1.8-0.4-2.9,0-4.9,0.6c-3.2,0.9-6.3,1.8-9.5,2.7      c1.2-4.4,2.5-8.7,4-12.9c0.2-0.6,0-1.1-0.3-1.4c0,0,0,0,0,0C1.2,33.2,3.4,13.9,16.4,5.8c7.8-4.8,17.8-2.5,26-0.2      c8.1,2.3,14.2,7,17,15.1C61.5,26.9,61.4,33.1,59.9,39.2z M40.9,33.6c-2.1-0.6-1.7,0.1-3.3,0.9c-3,1.5-5.4,0.6-7.8-1.9      c-1.8-2-2-1.9-1.5-5.5c0.1-0.6,0.6-0.7,0.6-1.3c-0.1-2.6-1.3-5.3-2-7.7c-0.2-0.6-0.6-0.9-1-1c0,0-0.1,0-0.1-0.1      c-8.8-2.8-10.8,7.6-8,13.9c3.6,8.3,14.6,15.8,23.9,15.3c3.6-0.2,5.9-2.3,6.4-6C48.4,36.6,43.9,34.4,40.9,33.6z M40.2,43.2      c-1-0.2-2-0.4-3.1-0.7c-2.1-0.6-4.1-1.3-6.1-2.2c-3.7-1.8-7-4.7-9.3-8.2c-1.9-2.9-5-14.2,2.4-12.4c0.6,1.8,1.2,3.5,1,5.3      c-0.2,1.4-0.8,1.7-1.3,3c-0.5,1.4-0.2,2.8,0.6,4c1.6,2.4,5.2,4.1,7.5,5.7c1.6,1,3.2,2.1,5.1,1.5c1.9-0.6,3.9-3.9,6-1.1      C43.7,41.9,42.7,43.6,40.2,43.2z"/></g></g></g><g id="facebook_3_"/><g id="reddit_3_"/><g id="telegram_3_"/><g id="nextdoor_3_"/><g id="linkedin_3_"/><g id="pinterest_3_"/></g><g id="outlines_1_"><g id="twitter_2_"/><g id="instagram_2_"/><g id="youtube_2_"/><g id="whatsapp_2_"/><g id="facebook_2_"/><g id="reddit_2_"/><g id="telegram_2_"/><g id="nextdoor_2_"/><g id="linkedin_2_"/><g id="pinterest_2_"/></g></svg>