<?xml version="1.0" ?><!DOCTYPE svg  PUBLIC '-//W3C//DTD SVG 1.1//EN'  'http://www.w3.org/Graphics/SVG/1.1/DTD/svg11.dtd'><svg enable-background="new 0 0 512 512" id="Layer_1" version="1.1" viewBox="0 0 512 512" xml:space="preserve" xmlns="http://www.w3.org/2000/svg" xmlns:xlink="http://www.w3.org/1999/xlink"><linearGradient gradientUnits="userSpaceOnUse" id="SVGID_1_" x1="256" x2="256" y1="512" y2="-9.094947e-013"><stop offset="0" style="stop-color:#4CA2CD"/><stop offset="1" style="stop-color:#67B26F"/></linearGradient><circle cx="256" cy="256" fill="url(#SVGID_1_)" r="256"/><path d="M377.9,318.2l-40.5-40.5c-4.1-4.1-9.5-6.3-15.3-6.3c-5.8,0-11.2,2.2-15.3,6.3l-26.1,26.1L208.9,232  l26.1-26.1c8.4-8.4,8.4-22.1,0-30.5l-41.2-41.2c-4.1-4.1-9.5-6.3-15.3-6.3c-5.8,0-11.2,2.2-15.3,6.3L145,152.4  c-13.1,13.1-18.9,29.1-16.8,46.3c1.9,15.7,10.1,31.3,23.8,45L268.3,360c15.6,15.6,34,24.2,51.7,24.2h0c14.6,0,28.3-6,39.6-17.2  l18.3-18.3C386.4,340.3,386.4,326.6,377.9,318.2z M370,340.8l-18.3,18.3c-9.2,9.2-19.9,13.9-31.7,13.9c-14.7,0-30.2-7.4-43.7-20.9  L159.9,235.7c-19-19-32.3-50.2-7-75.4l18.3-18.3c2-2,4.6-3,7.3-3c2.8,0,5.4,1.1,7.3,3l41.2,41.2c4,4,4,10.6,0,14.6L197,228  c-1.1,1.1-1.6,2.5-1.6,4c0,1.5,0.6,2.9,1.6,4l79.8,79.8c1.1,1.1,2.5,1.6,4,1.6s2.9-0.6,4-1.6l30.1-30.1c2-2,4.6-3,7.3-3  s5.4,1.1,7.3,3l40.5,40.5C374,330.2,374,336.7,370,340.8z" fill="#FFFFFF"/></svg>