<?xml version="1.0" encoding="iso-8859-1"?>
<!-- Generator: Adobe Illustrator 19.0.0, SVG Export Plug-In . SVG Version: 6.00 Build 0)  -->
<svg version="1.1" id="Capa_1" xmlns="http://www.w3.org/2000/svg" xmlns:xlink="http://www.w3.org/1999/xlink" x="0px" y="0px"
	 viewBox="0 0 512 512" style="enable-background:new 0 0 512 512;" xml:space="preserve">
<circle style="fill:#ADDC51;" cx="256" cy="256" r="256"/>
<path style="fill:#94C435;" d="M156.487,155.369c-46.11,46.11-53.793,116.381-22.341,170.653l-19.68,71.05l113.38,113.38
	C237.094,511.463,246.484,512,256,512c124.183,0,227.7-88.425,251.055-205.744L356.169,155.369
	C301.033,100.234,211.656,100.199,156.487,155.369z"/>
<path style="fill:#5A915A;" d="M356.169,155.369c-55.136-55.136-144.513-55.17-199.682,0
	c-46.11,46.11-53.793,116.381-22.341,170.653l-19.68,71.05l71.05-19.68c54.572,31.627,124.772,23.539,170.653-22.341
	C411.296,299.924,411.347,210.547,356.169,155.369z"/>
<path style="fill:#FFFFFF;" d="M333.725,305.616c-0.053-4.215-3.993-7.646-8.823-8.238c-11.828-1.429-23.008-4.573-33.314-9.114
	c-3.745-1.641-8.061-0.988-10.66,1.754c-2.348,2.52-4.767,4.993-7.251,7.415c-25.691-12.922-46.646-33.878-59.568-59.568
	c2.423-2.485,4.896-4.902,7.415-7.252c2.74-2.599,3.395-6.915,1.754-10.66c-4.541-10.307-7.684-21.486-9.114-33.314
	c-0.593-4.827-4.019-8.77-8.231-8.823c-2.989,0-6.634,0-10.481,0c-15.288-0.865-28.512,20.028-21.893,44.091
	c15.459,56.285,59.793,100.618,116.077,116.077c24.061,6.619,44.957-6.611,44.091-21.897
	C333.725,312.596,333.725,309.106,333.725,305.616z"/>
<g>
</g>
<g>
</g>
<g>
</g>
<g>
</g>
<g>
</g>
<g>
</g>
<g>
</g>
<g>
</g>
<g>
</g>
<g>
</g>
<g>
</g>
<g>
</g>
<g>
</g>
<g>
</g>
<g>
</g>
</svg>
