<?xml version="1.0" ?><!DOCTYPE svg  PUBLIC '-//W3C//DTD SVG 1.1//EN'  'http://www.w3.org/Graphics/SVG/1.1/DTD/svg11.dtd'><svg height="512px" style="enable-background:new 0 0 512 512;" version="1.1" viewBox="0 0 512 512" width="512px" xml:space="preserve" xmlns="http://www.w3.org/2000/svg" xmlns:xlink="http://www.w3.org/1999/xlink"><g id="Chat_x2C__line-icon_x2C__messenger_x2C__social_x2C__web_x2C__whatsapp"><g><path d="M288.042,18.133    c131.423,17.184,224.178,137.739,206.99,268.909c-17.188,131.423-137.491,224.178-268.914,206.99    C94.7,476.845,1.945,356.541,19.133,225.118C36.316,93.7,156.872,0.945,288.042,18.133L288.042,18.133z" style="fill-rule:evenodd;clip-rule:evenodd;fill:#75B743;"/><path d="M447.519,110.126    c37.152,48.523,56.107,111.458,47.514,176.916c-5.563,43.465-22.751,82.646-47.514,115.245H66.646    c-37.152-48.776-56.107-111.71-47.514-177.169c5.812-43.469,22.743-82.642,47.514-114.992H447.519z" style="fill-rule:evenodd;clip-rule:evenodd;fill:#6AA643;"/><path d="M251.647,141.467c-83.151,4.044-132.938,93.003-96.038,165.54    l-12.133,58.633c-0.505,3.03,2.272,5.816,5.56,5.059l57.37-13.652c73.042,36.647,162.001-14.906,164.535-98.31    C372.961,192.52,318.116,138.18,251.647,141.467L251.647,141.467z M320.136,318.126c-27.044,27.044-68.488,33.87-102.606,16.935    l-8.089-4.049l-35.385,8.342l7.583-35.881l-4.044-7.837c-17.44-34.122-10.866-76.077,16.43-103.368    c16.679-16.683,39.425-26.287,63.178-26.287c23.761,0,45.999,9.352,62.934,26.287c16.935,16.678,26.034,39.172,26.034,62.929    C346.17,278.701,336.818,301.443,320.136,318.126L320.136,318.126z" style="fill-rule:evenodd;clip-rule:evenodd;fill:#FFFFFF;"/><path d="M312.3,279.963l-21.985-6.32    c-2.777-1.011-6.068,0-8.089,2.028l-5.555,5.555c-2.281,2.272-5.563,3.03-8.594,1.768c-10.361-4.292-32.354-23.752-37.914-33.356    c-1.768-3.034-1.515-6.32,0.505-9.099l4.802-6.068c1.772-2.272,2.276-5.56,1.015-8.337l-9.352-20.979    c-2.277-5.054-8.594-6.316-12.891-2.777c-6.064,5.055-13.396,12.886-14.153,21.732c-1.768,15.42,5.055,34.88,30.074,58.38    c28.815,27.044,52.063,30.588,67.23,26.791c8.594-2.02,15.411-10.361,19.712-17.188    C319.883,287.547,317.611,281.479,312.3,279.963L312.3,279.963z" style="fill-rule:evenodd;clip-rule:evenodd;fill:#FFFFFF;"/></g></g><g id="Layer_1"/></svg>