<?xml version="1.0" ?><svg id="Layer_1" style="enable-background:new 0 0 64 64;" version="1.1" viewBox="0 0 64 64" xml:space="preserve" xmlns="http://www.w3.org/2000/svg" xmlns:xlink="http://www.w3.org/1999/xlink"><style type="text/css">
	.st0{fill:#07C160;}
	.st1{fill-rule:evenodd;clip-rule:evenodd;fill:#CCE490;}
	.st2{fill:#ACBDC5;}
	.st3{fill:#FFFFFF;}
	.st4{fill:#314A52;}
</style><g id="WeChat"><path class="st0" d="M27,42.8c10.7-1.3,19-9.2,19-18.8c0-10.5-9.8-19-22-19c-3.5,0-6.9,0.7-9.8,2l-0.8-1.8C5.6,8.5,0,15.6,0,24   c0,5.3,2.3,10.1,5.9,13.8l-1.8,6.7c-0.2,0.8,0.1,1.6,0.7,2.1c0.6,0.5,1.5,0.6,2.2,0.1l6.5-3.8C16.7,44.3,20.3,45,24,45   c1.1,0,2.2-0.1,3.2-0.2L27,42.8z"/><path class="st1" d="M31,21c1.7,0,3-1.3,3-3c0-1.7-1.3-3-3-3c-1.7,0-3,1.3-3,3C28,19.7,29.3,21,31,21z M17,21c1.7,0,3-1.3,3-3   c0-1.7-1.3-3-3-3c-1.7,0-3,1.3-3,3C14,19.7,15.3,21,17,21z M24,35c11,0,20-1.6,20-11c0-9.4-9-17-20-17C13,7,4,14.6,4,24   C4,33.4,13,35,24,35z"/><path class="st2" d="M62,39h2c0,4.8-2.1,9.2-5.5,12.4l1.4,5.1c0.2,0.8-0.1,1.7-0.8,2.1c-0.7,0.5-1.6,0.5-2.3,0l-4.8-3.2   c-2.5,1-5.2,1.5-8.1,1.5c-10.8,0-20-7.8-20-18s9.2-18,20-18c0.7,0,1.5,0,2.2,0.1l-0.2,2C54.6,24.1,61.4,31.6,62,39z"/><path class="st3" d="M60,39c0,7.7-7.2,10-16,10c-8.8,0-16-2.3-16-10c0-7.7,7.2-14,16-14C52.8,25,60,31.3,60,39z"/><path class="st4" d="M24,7c-3.8,0-7.4,0.9-10.4,2.5l-1.8-3.6C15.4,4.1,19.6,3,24,3c12,0,22.3,7.8,23.8,18.3   C56.9,22.9,64,30.1,64,39c0,4.8-2.1,9.2-5.5,12.4l-1.2-4.6C59,44.5,60,41.9,60,39c0-7-6-13.1-14.2-13.9l-1.7-0.2L44,23.2   C43.5,14.4,35,7,24,7z M38,35c1.1,0,2-0.9,2-2c0-1.1-0.9-2-2-2c-1.1,0-2,0.9-2,2C36,34.1,36.9,35,38,35z M50,35c1.1,0,2-0.9,2-2   c0-1.1-0.9-2-2-2c-1.1,0-2,0.9-2,2C48,34.1,48.9,35,50,35z"/></g></svg>