<?xml version="1.0"?>
<svg  fill="#2c8b66" height="22pt" width="22pt" xmlns="http://www.w3.org/2000/svg" viewBox="0 0 64 64">
    <path d="M 31 2 C 15.009 2 2 15.009 2 31 C 2 46.991 15.009 60 31 60 C 46.991 60 60 46.991 60 31 C 60 15.009 46.991 2 31 2 z M 31 4 C 45.888 4 58 16.112 58 31 C 58 45.888 45.888 58 31 58 C 16.112 58 4 45.888 4 31 C 4 16.112 16.112 4 31 4 z M 30.560547 8.0078125 C 24.667827 8.1283323 18.961328 10.511328 14.736328 14.736328 C 10.392328 19.080328 8 24.856 8 31 C 8 37.144 10.392328 42.919672 14.736328 47.263672 C 14.931328 47.458672 15.187359 47.556641 15.443359 47.556641 C 15.699359 47.556641 15.955391 47.458672 16.150391 47.263672 C 16.541391 46.872672 16.541391 46.240609 16.150391 45.849609 C 12.184391 41.883609 10 36.609 10 31 C 10 25.391 12.184391 20.116391 16.150391 16.150391 C 20.898391 11.401391 27.694891 9.202625 34.337891 10.265625 C 34.890891 10.354625 35.396375 9.9805469 35.484375 9.4355469 C 35.572375 8.8905469 35.200297 8.3770156 34.654297 8.2910156 C 33.290422 8.0725781 31.920405 7.9800002 30.560547 8.0078125 z M 38.660156 9.3867188 C 38.271 9.4032188 37.910375 9.6474063 37.765625 10.035156 C 37.571625 10.553156 37.833562 11.128266 38.351562 11.322266 C 39.063563 11.589266 39.769219 11.897234 40.449219 12.240234 C 40.594219 12.313234 40.748391 12.347656 40.900391 12.347656 C 41.266391 12.347656 41.618922 12.146828 41.794922 11.798828 C 42.043922 11.305828 41.844563 10.703078 41.351562 10.455078 C 40.605562 10.079078 39.832734 9.7412188 39.052734 9.4492188 C 38.923984 9.4009688 38.789875 9.3812188 38.660156 9.3867188 z M 44.433594 12.675781 C 44.179469 12.706531 43.936125 12.833281 43.765625 13.050781 C 43.424625 13.485781 43.500547 14.114078 43.935547 14.455078 C 44.600547 14.976078 45.245609 15.546391 45.849609 16.150391 C 49.815609 20.116391 52 25.391 52 31 C 52 36.609 49.815609 41.883609 45.849609 45.849609 C 45.458609 46.240609 45.458609 46.872672 45.849609 47.263672 C 46.044609 47.458672 46.300641 47.556641 46.556641 47.556641 C 46.812641 47.556641 47.068672 47.458672 47.263672 47.263672 C 51.607672 42.919672 54 37.144 54 31 C 54 24.856 51.607672 19.080328 47.263672 14.736328 C 46.602672 14.075328 45.897922 13.450859 45.169922 12.880859 C 44.952922 12.710359 44.687719 12.645031 44.433594 12.675781 z M 36.902344 16.003906 C 36.686969 16.025031 36.4785 16.116437 36.3125 16.273438 L 19.396484 32.273438 C 19.098484 32.554437 19.002297 32.989141 19.154297 33.369141 C 19.305297 33.750141 19.673031 34 20.082031 34 L 27.507812 34 L 23.146484 44.619141 C 22.969484 45.049141 23.111234 45.544453 23.490234 45.814453 C 23.665234 45.938453 23.868313 46 24.070312 46 C 24.308312 46 24.546375 45.915047 24.734375 45.748047 L 42.806641 29.759766 C 43.117641 29.484766 43.227078 29.04525 43.080078 28.65625 C 42.933078 28.26825 42.561484 28.011719 42.146484 28.011719 L 34.492188 28.001953 L 37.951172 17.308594 C 38.092172 16.873594 37.920203 16.398297 37.533203 16.154297 C 37.339703 16.031797 37.117719 15.982781 36.902344 16.003906 z M 34.84375 20.416016 L 32.166016 28.693359 C 32.068016 28.997359 32.120594 29.330844 32.308594 29.589844 C 32.496594 29.846844 32.797188 30 33.117188 30 L 39.509766 30.007812 L 26.630859 41.400391 L 29.925781 33.378906 C 30.052781 33.069906 30.015078 32.718406 29.830078 32.441406 C 29.644078 32.165406 29.333 32 29 32 L 22.595703 32 L 34.84375 20.416016 z M 21.373047 47.394531 C 20.986187 47.346625 20.591766 47.528219 20.384766 47.886719 L 19.384766 49.619141 C 19.108766 50.097141 19.272 50.708375 19.75 50.984375 C 19.907 51.075375 20.079047 51.119141 20.248047 51.119141 C 20.594047 51.119141 20.930234 50.940141 21.115234 50.619141 L 22.115234 48.886719 C 22.391234 48.409719 22.229 47.798484 21.75 47.521484 C 21.63025 47.452484 21.502 47.4105 21.373047 47.394531 z M 40.625 47.394531 C 40.496266 47.410625 40.369 47.452234 40.25 47.521484 C 39.771 47.797484 39.608766 48.410672 39.884766 48.888672 L 40.884766 50.619141 C 41.070766 50.940141 41.405953 51.119141 41.751953 51.119141 C 41.920953 51.119141 42.093 51.077328 42.25 50.986328 C 42.729 50.710328 42.891234 50.097141 42.615234 49.619141 L 41.615234 47.888672 C 41.407484 47.529422 41.011203 47.34625 40.625 47.394531 z M 25.814453 49.34375 C 25.428062 49.397047 25.093578 49.675672 24.986328 50.076172 L 24.46875 52.009766 C 24.32575 52.543766 24.642781 53.091375 25.175781 53.234375 C 25.262781 53.257375 25.350547 53.269531 25.435547 53.269531 C 25.877547 53.269531 26.281391 52.974344 26.400391 52.527344 L 26.917969 50.595703 C 27.061969 50.061703 26.745891 49.511141 26.212891 49.369141 C 26.078891 49.332891 25.94325 49.325984 25.814453 49.34375 z M 36.185547 49.34375 C 36.056703 49.325984 35.921359 49.332891 35.787109 49.369141 C 35.254109 49.512141 34.937078 50.061703 35.080078 50.595703 L 35.599609 52.527344 C 35.719609 52.974344 36.122453 53.269531 36.564453 53.269531 C 36.649453 53.269531 36.735266 53.258375 36.822266 53.234375 C 37.355266 53.091375 37.672297 52.543766 37.529297 52.009766 L 37.013672 50.076172 C 36.906422 49.675672 36.572078 49.397047 36.185547 49.34375 z M 31 50 C 30.448 50 30 50.448 30 51 L 30 53 C 30 53.552 30.448 54 31 54 C 31.552 54 32 53.552 32 53 L 32 51 C 32 50.448 31.552 50 31 50 z"/>
</svg>
