<?xml version="1.0" ?><!DOCTYPE svg  PUBLIC '-//W3C//DTD SVG 1.1//EN'  'http://www.w3.org/Graphics/SVG/1.1/DTD/svg11.dtd'><svg height="512px" style="enable-background:new 0 0 512 512;" version="1.1" viewBox="0 0 512 512" width="512px" xml:space="preserve" xmlns="http://www.w3.org/2000/svg" xmlns:xlink="http://www.w3.org/1999/xlink"><g id="_x31_4_x2C__Support"><g><path d="M253.5,38.5c-105.699,0-191.399,85.69-191.399,191.4c0,105.7,85.7,191.4,191.399,191.4v62.2    c0,0,186.931-82.62,191.4-253.6C444.9,124.19,359.211,38.5,253.5,38.5z" style="fill:#9BC9FF;"/><circle cx="443.5" cy="63.5" r="35" style="fill:#FFFFFF;"/><path d="M83.5,393.5c13.811,0,25,11.19,25,25s-11.189,25-25,25c-13.81,0-25-11.19-25-25    S69.69,393.5,83.5,393.5z" style="fill:#FFFFFF;"/><rect height="39.14" style="fill:#FFFFFF;" width="38.55" x="214.36" y="299.36"/><path d="M310.011,168.71c3.72,7.45,5.58,16.48,5.58,27.07c0,11.18-2.301,20.55-6.91,28.1    c-4.61,7.56-11.431,14.18-20.45,19.86c-4.12,2.75-8.29,5.199-12.51,7.359c-4.221,2.16-8.09,4.42-11.62,6.771    c-3.53,2.35-6.38,5-8.54,7.939c-2.16,2.95-3.23,6.48-3.23,10.601h-38.85v-0.01c0-4.511,0.3-8.82,0.88-12.94    c0.59-4.12,1.72-8.1,3.39-11.92c1.66-3.83,4.07-7.399,7.211-10.74c3.13-3.34,7.25-6.37,12.359-9.12    c2.54-1.37,5.93-3.19,10.15-5.45c4.21-2.25,8.33-4.85,12.359-7.8c4.021-2.94,7.5-6.32,10.44-10.15c2.95-3.82,4.42-8.09,4.42-12.8    c0-6.47-2.35-11.52-7.06-15.15s-10.11-5.45-16.19-5.45c-3.92,0-7.4,0.74-10.44,2.21c-3.05,1.47-5.789,3.24-8.239,5.3    c-2.46,2.06-4.561,4.37-6.33,6.91c-1.771,2.56-3.34,4.81-4.71,6.77l-30.311-21.19c5.101-11.96,13.19-21.28,24.28-27.95    c11.08-6.67,23.59-10.01,37.521-10.01c7.449,0,14.909,1.08,22.359,3.24c7.46,2.16,14.13,5.59,20.01,10.3    C301.471,155.17,306.271,161.25,310.011,168.71z" style="fill:#FFFFFF;"/><circle cx="471" cy="426" r="7.5" style="fill:#1E81CE;"/><circle cx="376" cy="466" r="7.5" style="fill:#1E81CE;"/><circle cx="371" cy="31" r="7.5" style="fill:#1E81CE;"/><circle cx="161" cy="446" r="7.5" style="fill:#1E81CE;"/><circle cx="106" cy="41" r="7.5" style="fill:#1E81CE;"/><circle cx="71" cy="351" r="7.5" style="fill:#1E81CE;"/><circle cx="36" cy="151" r="7.5" style="fill:#1E81CE;"/><path d="M253.501,488.5c-0.955,0-1.905-0.273-2.729-0.811c-1.417-0.923-2.271-2.499-2.271-4.189v-57.263    C142.507,423.574,57.101,336.522,57.101,229.9c0-108.295,88.104-196.4,196.399-196.4c108.296,0,196.4,88.104,196.4,196.4    c0,0.043,0,0.087-0.001,0.131c-1.042,39.833-11.959,78.224-32.449,114.106c-16.331,28.599-38.74,55.655-66.604,80.418    c-47.332,42.063-93.387,62.662-95.324,63.519C254.875,488.359,254.187,488.5,253.501,488.5z M253.5,43.5    c-102.781,0-186.399,83.619-186.399,186.4c0,102.782,83.618,186.4,186.399,186.4c2.762,0,5,2.238,5,5v54.236    c14.714-7.419,50.356-26.995,85.92-58.648c42.301-37.651,93.198-100.66,95.48-187.052C439.87,127.08,356.263,43.5,253.5,43.5z" style="fill:#1E81CE;"/><path d="M397.591,242.59c-2.762,0-5-2.239-5-5c0-76.694-62.396-139.09-139.091-139.09c-2.761,0-5-2.239-5-5    s2.239-5,5-5c82.209,0,149.091,66.881,149.091,149.09C402.591,240.351,400.352,242.59,397.591,242.59z" style="fill:#1E81CE;"/><path d="M443.5,103.5c-22.056,0-40-17.944-40-40s17.944-40,40-40c22.057,0,40,17.944,40,40    S465.557,103.5,443.5,103.5z M443.5,33.5c-16.542,0-30,13.458-30,30s13.458,30,30,30s30-13.458,30-30S460.042,33.5,443.5,33.5z" style="fill:#1E81CE;"/><path d="M83.5,448.5c-16.542,0-30-13.458-30-30s13.458-30,30-30s30,13.458,30,30S100.042,448.5,83.5,448.5z     M83.5,398.5c-11.027,0-20,8.972-20,20s8.973,20,20,20c11.028,0,20-8.972,20-20S94.528,398.5,83.5,398.5z" style="fill:#1E81CE;"/><path d="M252.33,281.41h-38.85c-2.762,0-5-2.238-5-5c0-4.68,0.313-9.268,0.929-13.647    c0.654-4.567,1.918-9.013,3.76-13.226c1.862-4.297,4.606-8.394,8.148-12.162c3.462-3.694,8.051-7.093,13.634-10.098    c2.539-1.37,5.933-3.192,10.158-5.455c3.987-2.131,7.945-4.629,11.768-7.427c3.625-2.651,6.796-5.732,9.427-9.16    c2.282-2.955,3.387-6.142,3.387-9.755c0-4.946-1.624-8.501-5.112-11.189c-3.851-2.968-8.148-4.411-13.138-4.411    c-3.135,0-5.915,0.576-8.264,1.711c-2.641,1.273-5.061,2.829-7.198,4.626c-2.083,1.744-3.912,3.741-5.446,5.941    c-1.765,2.553-3.34,4.81-4.714,6.776c-0.76,1.087-1.92,1.827-3.226,2.059c-1.307,0.23-2.65-0.066-3.737-0.826l-30.31-21.19    c-1.938-1.355-2.662-3.883-1.734-6.059c5.5-12.899,14.35-23.084,26.302-30.273c11.821-7.117,25.313-10.726,40.098-10.726    c7.893,0,15.884,1.157,23.752,3.438c8.064,2.335,15.381,6.103,21.743,11.2c6.413,5.128,11.722,11.828,15.774,19.911    c4.056,8.124,6.11,17.982,6.11,29.311c0,12.069-2.571,22.4-7.643,30.706c-4.98,8.168-12.382,15.385-21.997,21.45    c-4.222,2.814-8.579,5.377-12.953,7.615c-3.996,2.045-7.739,4.226-11.127,6.481c-3.026,2.015-5.477,4.281-7.282,6.738    c-1.518,2.074-2.259,4.575-2.259,7.64C257.33,279.172,255.092,281.41,252.33,281.41z M218.613,271.41h29.19    c0.626-3.161,1.871-6.025,3.722-8.554c2.506-3.409,5.802-6.484,9.805-9.148c3.702-2.466,7.777-4.841,12.112-7.06    c4.052-2.073,8.093-4.451,12.012-7.067c0.037-0.024,0.074-0.049,0.111-0.072c8.325-5.242,14.665-11.376,18.846-18.232    c4.101-6.716,6.18-15.293,6.18-25.497c0-9.764-1.7-18.12-5.054-24.836c-3.397-6.776-7.799-12.356-13.079-16.579    c-5.334-4.272-11.482-7.435-18.278-9.402c-6.964-2.02-14.019-3.043-20.969-3.043c-12.942,0-24.698,3.127-34.941,9.294    c-8.958,5.387-15.856,12.768-20.553,21.974l22.766,15.916c0.586-0.842,1.197-1.725,1.835-2.647c2.05-2.941,4.479-5.594,7.233-7.9    c2.768-2.328,5.893-4.338,9.278-5.971c3.712-1.795,7.957-2.706,12.611-2.706c7.181,0,13.654,2.184,19.242,6.49    c5.978,4.606,9.008,11.036,9.008,19.11c0,5.828-1.838,11.162-5.463,15.856c-3.201,4.171-7.056,7.919-11.445,11.13    c-4.199,3.073-8.559,5.824-12.955,8.173c-4.211,2.255-7.596,4.073-10.133,5.441c-4.632,2.493-8.36,5.23-11.085,8.138    c-2.755,2.931-4.863,6.061-6.271,9.31c-1.486,3.401-2.503,6.977-3.027,10.641C218.979,266.516,218.747,268.938,218.613,271.41z" style="fill:#1E81CE;"/><path d="M252.91,343.5h-38.55c-2.761,0-5-2.238-5-5v-39.14c0-2.762,2.239-5,5-5h38.55c2.762,0,5,2.238,5,5    v39.14C257.91,341.262,255.672,343.5,252.91,343.5z M219.36,333.5h28.55v-29.14h-28.55V333.5z" style="fill:#1E81CE;"/></g></g><g id="Layer_1"/></svg>