<?xml version="1.0" ?><svg id="Layer_1" style="enable-background:new 0 0 24 24;" version="1.1" viewBox="0 0 24 24" xml:space="preserve" xmlns="http://www.w3.org/2000/svg" xmlns:xlink="http://www.w3.org/1999/xlink"><style type="text/css">
	.st0{fill:#5F6B89;}
	.st1{fill:#EF7F5E;}
	.st2{fill:#E5F0F9;}
	.st3{fill:#FF5F5F;}
	.st4{fill:#9076FF;}
	.st5{fill:#527BFF;}
	.st6{fill:#5CF2CA;}
	.st7{fill:#5BDEF4;}
	.st8{fill:#7AED8C;}
	.st9{fill:#5CC7F2;}
	.st10{fill:#F2C65A;}
	.st11{fill:url(#SVGID_1_);}
	.st12{fill:url(#SVGID_2_);}
	.st13{fill:url(#SVGID_3_);}
	.st14{fill:#F45D9A;}
	.st15{opacity:0.35;fill:#37415E;}
	.st16{fill:#37415E;}
</style><path class="st2" d="M12.01,3.26c4.82,0,8.75,3.93,8.75,8.75s-3.93,8.75-8.75,8.75c-1.35,0-2.66-0.3-3.88-0.9  C8.07,19.83,8,19.82,7.94,19.84l-5.54,1.8l1.84-5.44c0.02-0.06,0.01-0.13-0.02-0.19c-0.63-1.23-0.96-2.62-0.96-4  C3.26,7.19,7.19,3.26,12.01,3.26z M19.76,12.01c0-4.27-3.48-7.75-7.75-7.75s-7.75,3.48-7.75,7.75c0,1.23,0.29,2.45,0.85,3.54  l0.24,0.47L4.14,19.6c-0.03,0.09-0.01,0.19,0.06,0.26c0.05,0.05,0.11,0.07,0.18,0.07c0.02,0,0.05,0,0.08-0.01l3.66-1.19l0.45,0.23  c1.08,0.53,2.24,0.8,3.44,0.8C16.28,19.76,19.76,16.28,19.76,12.01z"/><path class="st8" d="M12.01,4.76c4,0,7.25,3.25,7.25,7.25s-3.25,7.25-7.25,7.25c-1.12,0-2.2-0.25-3.22-0.75l-0.54-0.27  c-0.06-0.03-0.13-0.03-0.19-0.01l-3.29,1.06l1.09-3.21c0.02-0.06,0.02-0.13-0.01-0.19l-0.29-0.57c-0.52-1.02-0.8-2.16-0.8-3.31  C4.76,8.01,8.01,4.76,12.01,4.76z M17.05,14.84c0.01-0.4-0.23-0.75-0.6-0.88l-1.64-0.58c-0.32-0.12-0.69-0.04-0.93,0.21l-0.64,0.64  c-0.3-0.14-1.07-0.54-2-1.47c-0.93-0.93-1.33-1.7-1.47-2l0.65-0.64c0.24-0.24,0.32-0.61,0.2-0.93l-0.58-1.64  c-0.13-0.37-0.46-0.6-0.88-0.6C8.26,6.99,7.47,7.52,7.15,8.3C6.94,8.82,6.9,9.38,7.01,9.96c0.43,2.12,2.11,3.92,2.61,4.42  s2.3,2.18,4.42,2.61c0.21,0.04,0.41,0.06,0.61,0.06c0.36,0,0.71-0.07,1.05-0.2C16.48,16.53,17.01,15.74,17.05,14.84z"/><path class="st2" d="M16.28,14.43c0.17,0.06,0.27,0.21,0.27,0.39c-0.03,0.7-0.44,1.32-1.04,1.56c-0.43,0.17-0.89,0.21-1.37,0.12  c-1.98-0.41-3.69-1.99-4.17-2.47c-0.48-0.48-2.06-2.19-2.47-4.17C7.41,9.38,7.45,8.92,7.62,8.49c0.24-0.6,0.86-1.01,1.56-1.04  c0.17-0.02,0.33,0.1,0.39,0.27l0.58,1.63c0.06,0.15,0.02,0.31-0.09,0.42L9.3,10.53c-0.07,0.06-0.09,0.16-0.06,0.25  c0.01,0.04,0.35,1.03,1.65,2.33s2.29,1.64,2.33,1.65c0.09,0.03,0.19,0.01,0.25-0.06l0.76-0.76c0.11-0.11,0.27-0.14,0.42-0.09  L16.28,14.43z"/><path class="st16" d="M2,22.28c0.03,0,0.05,0,0.08-0.01L8,20.35c1.26,0.6,2.61,0.91,4.01,0.91c5.1,0,9.25-4.15,9.25-9.25  c0-5.1-4.15-9.25-9.25-9.25s-9.25,4.15-9.25,9.25c0,1.43,0.33,2.85,0.97,4.13l-1.97,5.81c-0.03,0.09,0,0.19,0.06,0.26  C1.87,22.26,1.93,22.28,2,22.28z M4.24,16.2c0.02-0.06,0.01-0.13-0.02-0.19c-0.63-1.23-0.96-2.62-0.96-4c0-4.82,3.93-8.75,8.75-8.75  s8.75,3.93,8.75,8.75s-3.93,8.75-8.75,8.75c-1.35,0-2.66-0.3-3.88-0.9C8.07,19.83,8,19.82,7.94,19.84l-5.54,1.8L4.24,16.2z"/><path class="st16" d="M8.57,18.96c1.08,0.53,2.24,0.8,3.44,0.8c4.27,0,7.75-3.48,7.75-7.75s-3.48-7.75-7.75-7.75  s-7.75,3.48-7.75,7.75c0,1.23,0.29,2.45,0.85,3.54l0.24,0.47L4.14,19.6c-0.03,0.09-0.01,0.19,0.06,0.26  c0.05,0.05,0.11,0.07,0.18,0.07c0.02,0,0.05,0,0.08-0.01l3.66-1.19L8.57,18.96z M4.77,19.29l1.09-3.21  c0.02-0.06,0.02-0.13-0.01-0.19l-0.29-0.57c-0.52-1.02-0.8-2.16-0.8-3.31c0-4,3.25-7.25,7.25-7.25s7.25,3.25,7.25,7.25  s-3.25,7.25-7.25,7.25c-1.12,0-2.2-0.25-3.22-0.75l-0.54-0.27c-0.06-0.03-0.13-0.03-0.19-0.01L4.77,19.29z"/><path class="st16" d="M14.04,16.99c0.21,0.04,0.41,0.06,0.61,0.06c0.36,0,0.71-0.07,1.05-0.2c0.78-0.32,1.31-1.11,1.35-2.01  c0.01-0.4-0.23-0.75-0.6-0.88l-1.64-0.58c-0.32-0.12-0.69-0.04-0.93,0.21l-0.64,0.64c-0.3-0.14-1.07-0.54-2-1.47  c-0.93-0.93-1.33-1.7-1.47-2l0.65-0.64c0.24-0.24,0.32-0.61,0.2-0.93l-0.58-1.64c-0.13-0.37-0.46-0.6-0.88-0.6  C8.26,6.99,7.47,7.52,7.15,8.3C6.94,8.82,6.9,9.38,7.01,9.96c0.43,2.12,2.11,3.92,2.61,4.42S11.92,16.56,14.04,16.99z M7.62,8.49  c0.24-0.6,0.86-1.01,1.56-1.04c0.17-0.02,0.33,0.1,0.39,0.27l0.58,1.63c0.06,0.15,0.02,0.31-0.09,0.42L9.3,10.53  c-0.07,0.06-0.09,0.16-0.06,0.25c0.01,0.04,0.35,1.03,1.65,2.33s2.29,1.64,2.33,1.65c0.09,0.03,0.19,0.01,0.25-0.06l0.76-0.76  c0.11-0.11,0.27-0.14,0.42-0.09l1.63,0.58c0.17,0.06,0.27,0.21,0.27,0.39c-0.03,0.7-0.44,1.32-1.04,1.56  c-0.43,0.17-0.89,0.21-1.37,0.12c-1.98-0.41-3.69-1.99-4.17-2.47c-0.48-0.48-2.06-2.19-2.47-4.17C7.41,9.38,7.45,8.92,7.62,8.49z"/></svg>