<?xml version="1.0" ?><!DOCTYPE svg  PUBLIC '-//W3C//DTD SVG 1.1//EN'  'http://www.w3.org/Graphics/SVG/1.1/DTD/svg11.dtd'><svg enable-background="new 0 0 150 150" height="150px" id="Layer_1" version="1.1" viewBox="0 0 150 150" width="150px" xml:space="preserve" xmlns="http://www.w3.org/2000/svg" xmlns:xlink="http://www.w3.org/1999/xlink"><g><circle cx="75.021" cy="75" fill="#7CC251" opacity="0.15" r="75"/><path d="M75.021,0v150c41.42,0,75-33.58,75-75.001C150.021,33.578,116.44,0,75.021,0z" fill="#7CC251" opacity="0.15"/><circle cx="75.021" cy="74.999" fill="#7CC251" r="65.487"/><path d="M75.021,9.512v130.975c36.168,0,65.488-29.318,65.488-65.488C140.509,38.832,111.188,9.512,75.021,9.512z" fill="#72B44B"/><g><path d="M9.606,72.073c-0.043,0.971-0.074,1.945-0.074,2.926c0,36.169,29.32,65.488,65.488,65.488v-5.852    C39.833,134.635,11.138,106.881,9.606,72.073z" fill="#72B44B"/><path d="M140.435,72.073c-1.533,34.808-30.227,62.562-65.414,62.562v5.852c36.168,0,65.488-29.318,65.488-65.488    C140.509,74.018,140.478,73.043,140.435,72.073z" fill="#69A846"/></g></g><path clip-rule="evenodd" d="M97.788,80.965c-0.251-0.406-0.916-0.656-1.914-1.15  c-1.002-0.498-5.92-2.902-6.834-3.223c-0.916-0.338-1.582-0.502-2.246,0.488c-0.67,0.996-2.584,3.229-3.17,3.885  c-0.585,0.662-1.168,0.748-2.166,0.252c-0.995-0.49-4.217-1.543-8.04-4.922c-2.968-2.632-4.979-5.874-5.558-6.866  c-0.582-0.999-0.065-1.534,0.439-2.023c0.445-0.443,0.996-1.164,1.494-1.734c0.506-0.583,0.672-0.999,1.002-1.663  c0.332-0.657,0.168-1.238-0.085-1.737c-0.245-0.499-2.246-5.367-3.079-7.362c-0.834-1.982-1.668-1.653-2.246-1.653  c-0.586,0-1.252-0.082-1.921-0.082c-0.666,0-1.751,0.25-2.669,1.239c-0.914,0.99-3.494,3.389-3.494,8.275  c0,4.885,3.58,9.598,4.08,10.258c0.502,0.66,6.918,11.001,17.077,14.97c10.169,3.977,10.169,2.646,12,2.48  c1.833-0.164,5.913-2.402,6.745-4.715C98.038,83.363,98.038,81.381,97.788,80.965L97.788,80.965z M77.195,37.631  c-18.91,0-34.289,15.257-34.289,34.02c0,7.441,2.427,14.335,6.536,19.947l-4.284,12.637l13.173-4.191  c5.416,3.557,11.9,5.631,18.864,5.631c18.908,0,34.287-15.266,34.287-34.023C111.482,52.888,96.104,37.631,77.195,37.631  L77.195,37.631z M117.976,71.651c0,22.347-18.258,40.466-40.78,40.466c-7.15,0-13.868-1.83-19.713-5.039l-22.579,7.18l7.357-21.719  c-3.708-6.098-5.849-13.244-5.849-20.888c0-22.353,18.257-40.464,40.783-40.464C99.718,31.187,117.976,49.298,117.976,71.651  L117.976,71.651z" fill="#FFFFFF" fill-rule="evenodd"/></svg>