<svg xmlns="http://www.w3.org/2000/svg" enable-background="new 0 0 124 124" viewBox="0 0 124 124"><path fill="#333033" d="M11.5,88.4c0-0.5,0-1,0-1.6c0.6-0.7,1.3-1.4,2.4-1.6c8.2-1.6,13.8-6.9,17.9-13.8
				c3.5-5.8,2.9-7.1-3.5-9.4c-0.4-0.1-0.7-0.2-1.1-0.4c-1.4-0.6-2.8-1.2-3.9-2.2c-2.9-2.5-1.2-6.1,2.2-6.9c2.5-0.6,4.7,1,7.1,1.3
				c1.6,0.2,2.3-0.3,2.1-2.1c-0.5-4.4-0.5-8.9-0.3-13.3c0.4-8.5,4.6-14.9,11.6-19.1c10.3-6.1,21.1-6.2,31.5-0.1
				C83.9,23,88.1,28.8,89,36.5c0.6,5,0.4,10.1,0,15.1c-0.2,2.2,0.3,2.6,2.4,2.1c2.7-0.6,4.9-2,7.7-0.8c1.5,0.7,2.8,2.1,2.7,3.7
				c0,1.1-0.7,2.1-1.5,2.9c-1.3,1.1-3,1.7-4.5,2.4c-1.2,0.5-2.5,0.9-3.6,1.4c-2.4,1.1-3.1,2.6-2,5.1c3.9,8.3,9.7,14.7,19.1,16.9
				c1.1,0.3,2.1,0.7,2.8,1.7c0,0.5,0,1,0,1.6c-0.9,1.8-2.5,2.8-4.3,3.5c-1.8,0.7-3.7,1.5-5.6,1.6c-2.7,0.2-4.1,1.4-4.6,4.2
				c-0.4,2.7-1.2,3.1-3.9,2.9c-0.6-0.1-1.3-0.2-1.9-0.3c-5.4-1-10.4-0.4-14.8,3.2c-0.9,0.7-1.8,1.3-2.8,1.9
				c-7.5,4.9-15.2,5.4-23.1,0.9c-2.1-1.3-4.2-2.7-6.3-4.1c-1.7-1.1-3.6-1.8-5.6-2.1c-3.3-0.5-6.4,0.2-9.6,0.6
				c-1.6,0.2-3.2-0.3-3.3-2c-0.2-4.1-2.7-5.1-6.1-5.4c-1.6-0.2-3.2-0.8-4.7-1.4C13.8,91.1,12.3,90.1,11.5,88.4z"/></svg>