<svg xmlns="http://www.w3.org/2000/svg" enable-background="new 0 0 124 124" viewBox="0 0 124 124"><path fill="#333033" d="M86.9,48.7c-20.9,0-20.9,20.8-20.9,20.9c0,0-1.4,20.8,20.9,20.8c0,0,16.8,1,18.5-12.3
				c0.1-1.2-0.8-2.2-1.9-2.2h-5.8c-0.8,0-1.6,0.5-1.9,1.4c-0.5,1.7-2.3,4.5-8.5,4.5c0,0-8.1,0.5-9.4-7.2c-0.2-1.2,0.7-2.2,1.9-2.2
				H104c1,0,1.9-0.8,1.9-1.9C106.1,64.9,105.1,48.7,86.9,48.7z M78.9,65c-0.8,0-1.3-0.7-1.1-1.5c0.8-2.4,3.1-6.9,9.2-6.9
				c6.3,0,7.8,4.7,8.2,7.1c0.1,0.7-0.4,1.3-1.1,1.3H78.9z M53.9,60.2c-0.7-0.2-0.8-1.2-0.1-1.5c2.3-1.2,5.1-3.8,5.1-9.4
				c0-9.7-6.8-14.5-15.4-14.5H16.5c-0.8,0-1.4,0.6-1.4,1.4v51.6c0,0.8,0.6,1.4,1.4,1.4h26.9c0,0,17.3,0.5,17.3-16.1
				C60.7,73.2,61.3,62.6,53.9,60.2z M27.5,45.5c0-0.6,0.5-1,1-1h14.8c0,0,3.8,0,3.8,5.7c0,5.7-2.3,6.5-4.8,6.5H28.6
				c-0.6,0-1-0.5-1-1V45.5z M42.6,79.6h-14c-0.6,0-1-0.5-1-1V66.1c0-0.6,0.5-1,1-1h14.8c0,0,5.8-0.1,5.7,7.5
				C49.1,78.9,44.8,79.5,42.6,79.6z M75.1,37v4.7c0,0.6,0.5,1,1,1h20.4c0.6,0,1-0.5,1-1V37c0-0.6-0.5-1-1-1H76.2
				C75.6,35.9,75.1,36.4,75.1,37z"/></svg>