<svg version="1.1" xmlns="http://www.w3.org/2000/svg"
	 width="100%" viewBox="0 0 1024 1024" xml:space="preserve">
<path fill="white"
	d="
M845.521851,705.559448 
	C811.602051,732.153564 773.697632,748.634399 731.313293,754.434509 
	C662.412476,763.863281 600.921326,746.206177 546.807739,702.879150 
	C519.770020,681.230896 499.218536,654.088074 482.447418,623.957886 
	C475.150909,610.849426 468.432739,597.452637 462.164246,583.825012 
	C461.499512,582.379883 461.221527,580.639099 458.978394,579.217468 
	C458.357910,585.341797 457.725037,591.038269 457.215057,596.745728 
	C456.368805,606.216064 449.514099,612.881165 440.250031,613.141174 
	C431.790131,613.378601 424.139893,606.747681 423.353699,597.911133 
	C423.004547,593.986816 423.666809,589.955322 424.032349,585.987427 
	C425.572845,569.264832 427.177826,552.548279 428.752502,535.828857 
	C429.470306,528.207092 429.878601,520.542358 430.949493,512.970947 
	C432.637146,501.038849 443.429626,494.572144 454.642181,498.936401 
	C479.777191,508.719696 504.827545,518.723633 529.839050,528.819275 
	C537.648987,531.971619 541.942078,539.289917 540.948730,546.541077 
	C539.816589,554.805420 534.166077,560.550293 526.028259,561.781860 
	C522.039490,562.385498 518.488953,560.876953 514.885498,559.604675 
	C511.146210,558.284485 507.673370,556.189026 503.677399,555.657837 
	C502.729034,556.812622 503.637054,557.616760 504.081146,558.419434 
	C520.010376,587.209229 538.055786,614.541870 559.576477,639.517761 
	C581.583496,665.058105 607.010437,685.878235 639.446350,696.679932 
	C664.235596,704.935181 689.769531,707.399414 715.789612,704.712036 
	C749.679199,701.211975 780.591187,689.720093 807.976624,669.472900 
	C845.495544,641.733826 869.637390,604.874939 880.114563,559.450073 
	C889.144043,520.301575 885.359497,481.998871 869.588623,445.085724 
	C866.944336,438.896576 866.382935,433.044617 867.021179,426.702026 
	C869.269470,404.360321 871.480225,382.014832 873.742493,359.674561 
	C874.607056,351.137543 875.572144,342.610748 876.573120,333.321564 
	C870.527039,334.094086 865.151001,334.720123 859.793213,335.475800 
	C832.928650,339.264954 806.066772,343.073517 779.210022,346.917297 
	C775.808044,347.404144 772.727722,346.898529 769.515625,345.536865 
	C741.688354,333.740295 712.702759,329.558472 682.567871,331.849182 
	C646.485413,334.592041 614.261414,347.149963 585.333984,368.588104 
	C581.458008,371.460602 577.766052,374.593384 574.110474,377.746582 
	C571.958191,379.603088 570.349670,379.936951 568.313293,377.453918 
	C559.311096,366.477112 549.335083,356.429413 538.509766,347.252106 
	C535.658325,344.834778 535.532410,343.239655 538.463501,340.605469 
	C570.979004,311.383789 608.820251,292.666595 651.526672,284.133636 
	C680.316772,278.381256 709.319946,278.058319 738.384644,283.323822 
	C752.202209,285.827087 765.667786,289.352844 778.813599,294.104492 
	C783.242920,295.705475 787.556091,296.128784 792.037292,295.499298 
	C818.881714,291.728363 845.708618,287.832336 872.554565,284.072083 
	C891.169739,281.464722 909.819580,279.101624 928.422180,276.409790 
	C932.402344,275.833893 933.625061,277.085358 933.241699,280.843323 
	C931.114380,301.696503 929.031616,322.554260 926.938782,343.410980 
	C925.393494,358.809662 923.850830,374.208618 922.317444,389.608490 
	C921.180054,401.031311 920.121399,412.462524 918.883911,423.874390 
	C918.606567,426.432190 918.863464,428.662628 919.791687,431.121765 
	C933.592224,467.683838 938.927795,505.272644 934.596741,544.328125 
	C929.178833,593.183655 910.330322,636.032776 878.850586,673.498230 
	C868.970581,685.256775 857.968994,695.919312 845.521851,705.559448 
z"/>
<path fill="white" opacity="0.7"
	d="
M107.584572,598.589478 
	C98.815056,575.884521 92.770569,552.886475 91.022675,529.003906 
	C87.930138,486.748535 93.893089,445.917267 112.505264,407.487213 
	C142.910599,344.706909 191.276566,302.303284 257.689911,280.775696 
	C282.280945,272.804626 307.702026,269.219696 333.466736,270.001068 
	C397.789185,271.951843 452.921844,295.911530 498.540466,341.273743 
	C517.244629,359.872803 531.398438,381.872833 543.699707,405.098694 
	C546.965210,411.264221 550.318420,417.383240 554.086182,424.366486 
	C554.983521,421.182556 554.586670,418.832947 554.336487,416.488220 
	C553.912659,412.516113 553.340942,408.547150 554.320312,404.566437 
	C556.343262,396.343414 562.878052,391.418488 571.534912,391.623932 
	C579.918335,391.822937 586.344910,396.917175 587.260559,405.432800 
	C588.664551,418.489319 589.341553,431.626526 590.215149,444.736938 
	C591.188477,459.344299 591.932312,473.967407 592.973450,488.569611 
	C593.748535,499.441681 583.754639,508.927032 573.080566,506.627258 
	C548.693359,501.372986 524.378845,495.781494 500.038086,490.312103 
	C496.957642,489.619965 493.819611,489.067047 490.842041,488.055756 
	C481.875824,485.010498 477.351318,476.491852 479.690826,467.434906 
	C481.873901,458.983765 490.391998,453.664703 499.378967,455.308136 
	C503.795807,456.115814 508.163574,457.201050 512.537964,458.227020 
	C514.161011,458.607697 515.727600,458.995880 517.032715,458.237518 
	C517.728394,457.031494 517.317505,456.267853 516.853333,455.587524 
	C496.660278,425.986115 476.575104,396.286682 451.046112,370.843658 
	C425.507874,345.391479 395.161438,328.875183 359.309723,323.805237 
	C303.172485,315.866547 252.364075,328.758270 208.514648,365.321899 
	C172.373474,395.457977 150.808838,434.328918 143.636414,480.746094 
	C138.149338,516.256409 142.749557,550.830383 157.492615,583.688599 
	C160.355057,590.068115 159.602600,595.957947 159.021896,602.117249 
	C156.898560,624.638428 154.508698,647.134338 152.310867,669.648682 
	C151.572433,677.212952 150.191406,684.742004 150.369400,692.871216 
	C158.405380,693.001465 165.882462,691.299927 173.379578,690.333862 
	C196.631470,687.337341 219.863266,684.143921 243.031143,680.562927 
	C249.454559,679.570007 254.981888,680.659485 260.852539,683.040283 
	C286.436005,693.415100 313.258026,697.301575 340.629547,695.478394 
	C382.113983,692.715332 418.877014,677.649048 450.529327,650.474792 
	C455.527527,646.183716 455.452515,646.315063 459.682098,651.314209 
	C468.087372,661.248718 477.105988,670.593506 487.041992,679.028076 
	C488.279602,680.078613 489.923737,680.784668 490.493073,682.865601 
	C487.265411,687.403809 482.633728,690.707275 478.260559,694.204773 
	C445.602661,720.323486 408.697693,737.174683 367.420197,744.020630 
	C325.619415,750.953430 284.782898,746.696228 245.107483,731.951721 
	C238.065323,729.334595 231.592148,731.891296 225.026306,732.753174 
	C184.456787,738.078857 143.946075,743.851379 103.406380,749.406311 
	C93.169891,750.808960 92.837982,750.664856 93.756157,740.476013 
	C95.427284,721.931763 97.569275,703.430420 99.411247,684.900879 
	C100.924599,669.677185 102.246162,654.434509 103.731537,639.207947 
	C104.813248,628.119202 106.037827,617.044373 107.164368,605.959839 
	C107.399223,603.648987 107.483215,601.322815 107.584572,598.589478 
z"/>
</svg>